<?xml version="1.0" standalone="no"?>
<!DOCTYPE svg PUBLIC "-//W3C//DTD SVG 1.1//EN" "http://www.w3.org/Graphics/SVG/1.1/DTD/svg11.dtd">
<!--Generator: Xara Designer (www.xara.com), SVG filter version: 6.6.0.9-->
<svg fill="none" fill-rule="evenodd" stroke="black" stroke-width="0.501" stroke-linejoin="bevel" stroke-miterlimit="10" font-family="Times New Roman" font-size="16" style="font-variant-ligatures:none" xmlns:xlink="http://www.w3.org/1999/xlink" xmlns="http://www.w3.org/2000/svg" version="1.1" overflow="visible" width="55.575pt" height="12.062pt" viewBox="421.146 -405.923 55.575 12.062">
 <defs>
  <style type="text/css">@import url('https://themes.googleusercontent.com/fonts/css?family=Open Sans:400,600');</style>
 </defs>
 <g id="Layer 1" transform="scale(1 -1)">
  <path d="M 437.963,394.874 C 437.558,395.053 437.22,395.295 436.948,395.601 C 436.677,395.906 436.474,396.254 436.341,396.644 C 436.208,397.033 436.141,397.439 436.141,397.859 L 436.141,398.086 C 436.141,398.531 436.211,398.951 436.352,399.349 C 436.494,399.745 436.703,400.096 436.977,400.403 C 437.252,400.709 437.594,400.95 437.998,401.126 C 438.401,401.301 438.868,401.389 439.395,401.389 C 439.976,401.389 440.488,401.274 440.931,401.045 C 441.375,400.816 441.728,400.501 441.991,400.099 C 442.255,399.699 442.403,399.237 442.432,398.718 L 440.393,398.718 C 440.37,398.97 440.277,399.184 440.112,399.36 C 439.947,399.536 439.709,399.623 439.395,399.623 C 439.129,399.623 438.909,399.555 438.737,399.418 C 438.565,399.28 438.437,399.088 438.352,398.845 C 438.268,398.599 438.227,398.309 438.227,397.973 C 438.227,397.66 438.262,397.381 438.335,397.138 C 438.407,396.892 438.529,396.704 438.702,396.569 C 438.874,396.436 439.106,396.369 439.395,396.369 C 439.61,396.369 439.79,396.407 439.935,396.484 C 440.08,396.559 440.194,396.668 440.278,396.809 C 440.362,396.952 440.416,397.118 440.439,397.308 L 442.479,397.308 C 442.448,396.775 442.297,396.304 442.026,395.898 C 441.754,395.494 441.394,395.177 440.942,394.948 C 440.492,394.719 439.976,394.604 439.395,394.604 C 438.845,394.604 438.369,394.695 437.963,394.874 Z M 467.943,394.88 C 467.53,395.062 467.182,395.31 466.899,395.624 C 466.617,395.937 466.401,396.289 466.253,396.677 C 466.188,396.843 466.139,397.01 466.103,397.178 C 466.07,396.969 466.024,396.771 465.96,396.581 C 465.83,396.187 465.639,395.843 465.388,395.548 C 465.135,395.255 464.831,395.029 464.476,394.867 C 464.122,394.707 463.718,394.627 463.267,394.627 C 462.747,394.627 462.295,394.735 461.909,394.948 C 461.523,395.162 461.221,395.475 461.004,395.887 C 460.938,396.01 460.884,396.138 460.838,396.276 L 460.838,394.834 L 459.186,394.834 L 459.186,403.199 L 461.273,403.199 L 461.272,400.219 L 461.279,400.215 L 461.278,400.215 C 461.48,400.552 461.74,400.816 462.058,401.005 C 462.436,401.23 462.873,401.344 463.37,401.344 C 463.798,401.344 464.184,401.265 464.527,401.108 C 464.872,400.951 465.164,400.729 465.405,400.443 C 465.645,400.156 465.83,399.819 465.96,399.43 C 466.024,399.24 466.07,399.042 466.103,398.835 C 466.139,399.009 466.188,399.176 466.253,399.343 C 466.401,399.736 466.616,400.086 466.895,400.392 C 467.173,400.698 467.515,400.94 467.92,401.12 C 468.325,401.299 468.783,401.389 469.294,401.389 C 469.975,401.389 470.552,401.236 471.025,400.93 C 471.501,400.625 471.862,400.221 472.115,399.722 C 472.367,399.221 472.493,398.676 472.493,398.086 L 472.493,397.424 L 468.003,397.424 C 468.028,397.297 468.061,397.181 468.102,397.073 C 468.202,396.817 468.356,396.621 468.561,396.484 C 468.768,396.346 469.036,396.277 469.364,396.277 C 469.654,396.277 469.894,396.327 470.081,396.427 C 470.267,396.525 470.399,396.66 470.476,396.826 L 472.378,396.826 C 472.287,396.399 472.105,396.018 471.834,395.68 C 471.563,395.346 471.218,395.082 470.802,394.891 C 470.385,394.699 469.906,394.604 469.364,394.604 C 468.829,394.604 468.356,394.696 467.943,394.88 Z M 445.888,395.331 C 445.494,395.802 445.298,396.521 445.298,397.493 L 445.298,401.16 L 447.385,401.16 L 447.385,397.435 C 447.385,397.151 447.467,396.923 447.636,396.747 C 447.804,396.571 448.029,396.484 448.312,396.484 C 448.595,396.484 448.823,396.571 449,396.747 C 449.175,396.923 449.264,397.161 449.264,397.457 L 449.264,401.16 L 451.35,401.16 L 451.35,394.834 L 449.699,394.834 L 449.699,396.32 C 449.663,396.163 449.62,396.017 449.567,395.881 C 449.403,395.457 449.16,395.143 448.84,394.936 C 448.518,394.731 448.121,394.627 447.648,394.627 L 447.555,394.627 C 446.837,394.627 446.281,394.862 445.888,395.331 Z M 454.7,394.948 C 454.315,395.162 454.013,395.475 453.795,395.887 C 453.731,396.01 453.676,396.138 453.628,396.276 L 453.628,394.834 L 451.978,394.834 L 451.978,403.199 L 454.064,403.199 L 454.064,400.206 C 454.267,400.548 454.529,400.813 454.848,401.005 C 455.227,401.23 455.665,401.344 456.161,401.344 C 456.59,401.344 456.975,401.265 457.319,401.108 C 457.663,400.951 457.955,400.729 458.196,400.443 C 458.436,400.156 458.621,399.819 458.751,399.43 C 458.881,399.04 458.946,398.611 458.946,398.145 L 458.946,397.871 C 458.946,397.404 458.881,396.975 458.751,396.581 C 458.621,396.187 458.431,395.843 458.179,395.548 C 457.926,395.255 457.622,395.029 457.267,394.867 C 456.911,394.707 456.509,394.627 456.058,394.627 C 455.539,394.627 455.087,394.735 454.7,394.948 Z M 442.717,394.834 L 442.717,401.68 L 442.635,401.68 L 442.635,401.687 L 442.006,401.687 L 442.006,403.199 L 442.635,403.199 L 442.635,403.2 L 444.803,403.2 L 444.803,394.834 L 442.717,394.834 Z M 472.686,394.834 L 472.686,401.16 L 474.337,401.16 L 474.337,398.93 C 474.396,399.572 474.574,400.093 474.869,400.495 C 475.239,400.999 475.772,401.251 476.468,401.251 L 476.721,401.251 L 476.721,399.462 L 476.24,399.462 C 475.772,399.462 475.412,399.337 475.155,399.085 C 474.9,398.833 474.772,398.47 474.772,397.996 L 474.772,394.834 L 472.686,394.834 Z M 453.628,396.276 L 453.628,396.28 L 453.626,396.28 C 453.626,396.279 453.627,396.277 453.628,396.276 Z M 460.838,396.276 L 460.838,396.287 L 460.834,396.285 C 460.835,396.282 460.836,396.28 460.838,396.276 Z M 449.703,396.335 L 449.701,396.336 L 449.699,396.338 L 449.699,396.32 C 449.701,396.326 449.701,396.33 449.703,396.335 Z M 456.19,396.558 C 456.399,396.699 456.564,396.896 456.683,397.149 C 456.801,397.401 456.862,397.687 456.862,398.008 C 456.862,398.337 456.801,398.622 456.683,398.862 C 456.564,399.102 456.402,399.289 456.197,399.423 C 455.989,399.558 455.745,399.623 455.462,399.623 C 455.21,399.623 454.976,399.567 454.757,399.451 C 454.539,399.337 454.361,399.17 454.225,398.947 C 454.087,398.726 454.019,398.457 454.019,398.145 L 454.019,397.756 C 454.019,397.457 454.091,397.203 454.236,396.993 C 454.381,396.784 454.565,396.623 454.786,396.512 C 455.007,396.401 455.233,396.346 455.462,396.346 C 455.738,396.346 455.98,396.416 456.19,396.558 Z M 463.398,396.558 C 463.61,396.699 463.774,396.896 463.892,397.149 C 464.009,397.401 464.069,397.687 464.069,398.008 C 464.069,398.337 464.009,398.622 463.892,398.862 C 463.774,399.102 463.612,399.289 463.404,399.423 C 463.199,399.558 462.954,399.623 462.67,399.623 C 462.419,399.623 462.183,399.567 461.966,399.451 C 461.748,399.337 461.571,399.17 461.433,398.947 C 461.295,398.726 461.226,398.457 461.226,398.145 L 461.226,397.756 C 461.226,397.457 461.3,397.203 461.445,396.993 C 461.589,396.784 461.773,396.623 461.995,396.512 C 462.216,396.401 462.442,396.346 462.67,396.346 C 462.946,396.346 463.188,396.416 463.398,396.558 Z M 468.003,397.426 L 468.002,397.424 L 468.003,397.424 C 468.003,397.424 468.003,397.426 468.003,397.426 Z M 467.999,398.546 L 467.996,398.546 L 467.997,398.542 C 467.997,398.545 467.997,398.545 467.999,398.546 Z M 470.519,398.546 L 470.528,398.561 C 470.505,398.703 470.469,398.834 470.423,398.952 C 470.328,399.202 470.187,399.391 470.001,399.521 C 469.813,399.65 469.579,399.716 469.294,399.716 C 469.02,399.716 468.782,399.653 468.58,399.526 C 468.376,399.4 468.223,399.21 468.115,398.952 C 468.063,398.833 468.025,398.697 467.999,398.546 L 470.519,398.546 Z M 454.064,400.175 L 454.064,400.206 C 454.058,400.195 454.052,400.186 454.047,400.176 L 454.048,400.176 L 454.064,400.175 Z M 454.064,400.194 L 454.064,400.206 L 454.064,400.206 L 454.064,400.194 Z" stroke-opacity="0.133333" fill="#000000" stroke-width="0.307" stroke-linecap="round" stroke="none" stroke-linejoin="miter" marker-start="none" marker-end="none" fill-opacity="0.133333"/>
  <path d="M 437.078,395.459 C 436.673,395.638 436.335,395.88 436.063,396.186 C 435.792,396.491 435.589,396.839 435.456,397.229 C 435.323,397.618 435.256,398.024 435.256,398.444 L 435.256,398.671 C 435.256,399.116 435.326,399.536 435.467,399.934 C 435.609,400.33 435.818,400.681 436.092,400.988 C 436.367,401.294 436.709,401.535 437.113,401.711 C 437.516,401.886 437.983,401.974 438.51,401.974 C 439.091,401.974 439.603,401.859 440.046,401.63 C 440.49,401.401 440.843,401.086 441.106,400.684 C 441.37,400.284 441.518,399.822 441.547,399.303 L 439.508,399.303 C 439.485,399.555 439.392,399.769 439.227,399.945 C 439.062,400.121 438.824,400.208 438.51,400.208 C 438.244,400.208 438.024,400.14 437.852,400.003 C 437.68,399.865 437.552,399.673 437.467,399.43 C 437.383,399.184 437.342,398.894 437.342,398.558 C 437.342,398.245 437.377,397.966 437.45,397.723 C 437.522,397.477 437.644,397.289 437.817,397.154 C 437.989,397.021 438.221,396.954 438.51,396.954 C 438.725,396.954 438.905,396.992 439.05,397.069 C 439.195,397.144 439.309,397.253 439.393,397.394 C 439.477,397.537 439.531,397.703 439.554,397.893 L 441.594,397.893 C 441.563,397.36 441.412,396.889 441.141,396.483 C 440.869,396.079 440.509,395.762 440.057,395.533 C 439.607,395.304 439.091,395.189 438.51,395.189 C 437.96,395.189 437.484,395.28 437.078,395.459 Z M 467.058,395.465 C 466.645,395.647 466.297,395.895 466.014,396.209 C 465.732,396.522 465.516,396.874 465.368,397.262 C 465.303,397.428 465.254,397.595 465.218,397.763 C 465.185,397.554 465.139,397.356 465.075,397.166 C 464.945,396.772 464.754,396.428 464.503,396.133 C 464.25,395.84 463.946,395.614 463.591,395.452 C 463.237,395.292 462.833,395.212 462.382,395.212 C 461.862,395.212 461.41,395.32 461.024,395.533 C 460.638,395.747 460.336,396.06 460.119,396.472 C 460.053,396.595 459.999,396.723 459.953,396.861 L 459.953,395.419 L 458.301,395.419 L 458.301,403.784 L 460.388,403.784 L 460.387,400.804 L 460.394,400.8 L 460.393,400.8 C 460.595,401.137 460.855,401.401 461.173,401.59 C 461.551,401.815 461.988,401.929 462.485,401.929 C 462.913,401.929 463.299,401.85 463.642,401.693 C 463.987,401.536 464.279,401.314 464.52,401.028 C 464.76,400.741 464.945,400.404 465.075,400.015 C 465.139,399.825 465.185,399.627 465.218,399.42 C 465.254,399.594 465.303,399.761 465.368,399.928 C 465.516,400.321 465.731,400.671 466.01,400.977 C 466.288,401.283 466.63,401.525 467.035,401.705 C 467.44,401.884 467.898,401.974 468.409,401.974 C 469.09,401.974 469.667,401.821 470.14,401.515 C 470.616,401.21 470.977,400.806 471.23,400.307 C 471.482,399.806 471.608,399.261 471.608,398.671 L 471.608,398.009 L 467.118,398.009 C 467.143,397.882 467.176,397.766 467.217,397.658 C 467.317,397.402 467.471,397.206 467.676,397.069 C 467.883,396.931 468.151,396.862 468.479,396.862 C 468.769,396.862 469.009,396.912 469.196,397.012 C 469.382,397.11 469.514,397.245 469.591,397.411 L 471.493,397.411 C 471.402,396.984 471.22,396.603 470.949,396.265 C 470.678,395.931 470.333,395.667 469.917,395.476 C 469.5,395.284 469.021,395.189 468.479,395.189 C 467.944,395.189 467.471,395.281 467.058,395.465 Z M 445.003,395.916 C 444.609,396.387 444.413,397.106 444.413,398.078 L 444.413,401.745 L 446.5,401.745 L 446.5,398.02 C 446.5,397.736 446.582,397.508 446.751,397.332 C 446.919,397.156 447.144,397.069 447.427,397.069 C 447.71,397.069 447.938,397.156 448.115,397.332 C 448.29,397.508 448.379,397.746 448.379,398.042 L 448.379,401.745 L 450.465,401.745 L 450.465,395.419 L 448.814,395.419 L 448.814,396.905 C 448.778,396.748 448.735,396.602 448.682,396.466 C 448.518,396.042 448.275,395.728 447.955,395.521 C 447.633,395.316 447.236,395.212 446.763,395.212 L 446.67,395.212 C 445.952,395.212 445.396,395.447 445.003,395.916 Z M 453.815,395.533 C 453.43,395.747 453.128,396.06 452.91,396.472 C 452.846,396.595 452.791,396.723 452.743,396.861 L 452.743,395.419 L 451.093,395.419 L 451.093,403.784 L 453.179,403.784 L 453.179,400.791 C 453.382,401.133 453.644,401.398 453.963,401.59 C 454.342,401.815 454.78,401.929 455.276,401.929 C 455.705,401.929 456.09,401.85 456.434,401.693 C 456.778,401.536 457.07,401.314 457.311,401.028 C 457.551,400.741 457.736,400.404 457.866,400.015 C 457.996,399.625 458.061,399.196 458.061,398.73 L 458.061,398.456 C 458.061,397.989 457.996,397.56 457.866,397.166 C 457.736,396.772 457.546,396.428 457.294,396.133 C 457.041,395.84 456.737,395.614 456.382,395.452 C 456.026,395.292 455.624,395.212 455.173,395.212 C 454.654,395.212 454.202,395.32 453.815,395.533 Z M 441.832,395.419 L 441.832,402.265 L 441.75,402.265 L 441.75,402.272 L 441.121,402.272 L 441.121,403.784 L 441.75,403.784 L 441.75,403.785 L 443.918,403.785 L 443.918,395.419 L 441.832,395.419 Z M 471.801,395.419 L 471.801,401.745 L 473.452,401.745 L 473.452,399.515 C 473.511,400.157 473.689,400.678 473.984,401.08 C 474.354,401.584 474.887,401.836 475.583,401.836 L 475.836,401.836 L 475.836,400.047 L 475.355,400.047 C 474.887,400.047 474.527,399.922 474.27,399.67 C 474.015,399.418 473.887,399.055 473.887,398.581 L 473.887,395.419 L 471.801,395.419 Z M 452.743,396.861 L 452.743,396.865 L 452.741,396.865 C 452.741,396.864 452.742,396.862 452.743,396.861 Z M 459.953,396.861 L 459.953,396.872 L 459.949,396.87 C 459.95,396.867 459.951,396.865 459.953,396.861 Z M 448.818,396.92 L 448.816,396.921 L 448.814,396.923 L 448.814,396.905 C 448.816,396.911 448.816,396.915 448.818,396.92 Z M 455.305,397.143 C 455.514,397.284 455.679,397.481 455.798,397.734 C 455.916,397.986 455.977,398.272 455.977,398.593 C 455.977,398.922 455.916,399.207 455.798,399.447 C 455.679,399.687 455.517,399.874 455.312,400.008 C 455.104,400.143 454.86,400.208 454.577,400.208 C 454.325,400.208 454.091,400.152 453.872,400.036 C 453.654,399.922 453.476,399.755 453.34,399.532 C 453.202,399.311 453.134,399.042 453.134,398.73 L 453.134,398.341 C 453.134,398.042 453.206,397.788 453.351,397.578 C 453.496,397.369 453.68,397.208 453.901,397.097 C 454.122,396.986 454.348,396.931 454.577,396.931 C 454.853,396.931 455.095,397.001 455.305,397.143 Z M 462.513,397.143 C 462.725,397.284 462.889,397.481 463.007,397.734 C 463.124,397.986 463.184,398.272 463.184,398.593 C 463.184,398.922 463.124,399.207 463.007,399.447 C 462.889,399.687 462.727,399.874 462.519,400.008 C 462.314,400.143 462.069,400.208 461.785,400.208 C 461.534,400.208 461.298,400.152 461.081,400.036 C 460.863,399.922 460.686,399.755 460.548,399.532 C 460.41,399.311 460.341,399.042 460.341,398.73 L 460.341,398.341 C 460.341,398.042 460.415,397.788 460.56,397.578 C 460.704,397.369 460.888,397.208 461.11,397.097 C 461.331,396.986 461.557,396.931 461.785,396.931 C 462.061,396.931 462.303,397.001 462.513,397.143 Z M 467.118,398.011 L 467.117,398.009 L 467.118,398.009 C 467.118,398.009 467.118,398.011 467.118,398.011 Z M 467.114,399.131 L 467.111,399.131 L 467.112,399.127 C 467.112,399.13 467.112,399.13 467.114,399.131 Z M 469.634,399.131 L 469.643,399.146 C 469.62,399.288 469.584,399.419 469.538,399.537 C 469.443,399.787 469.302,399.976 469.116,400.106 C 468.928,400.235 468.694,400.301 468.409,400.301 C 468.135,400.301 467.897,400.238 467.695,400.111 C 467.491,399.985 467.338,399.795 467.23,399.537 C 467.178,399.418 467.14,399.282 467.114,399.131 L 469.634,399.131 Z M 453.179,400.76 L 453.179,400.791 C 453.173,400.78 453.167,400.771 453.162,400.761 L 453.163,400.761 L 453.179,400.76 Z M 453.179,400.779 L 453.179,400.791 L 453.179,400.791 L 453.179,400.779 Z" fill="#000000" stroke-width="0.307" stroke-linecap="round" stroke="none" stroke-linejoin="miter" marker-start="none" marker-end="none"/>
  <path d="M 433.087,398.88 C 433.528,401.914 431.897,405.098 427.954,405.909 C 427.722,405.918 427.487,405.923 427.256,405.923 C 427.23,405.912 427.205,405.906 427.179,405.903 C 427.145,405.903 427.107,405.909 427.069,405.923 C 426.84,405.918 426.608,405.909 426.38,405.895 C 426.377,405.889 426.377,405.886 426.377,405.88 C 424.507,405.548 422.964,404.621 421.961,402.905 C 421.195,401.603 420.992,400.185 421.255,398.719 C 421.758,395.928 424.436,393.789 427.273,393.863 C 430.132,393.933 432.68,396.111 433.087,398.88 Z" fill="#000000" stroke="none" stroke-width="0.195" stroke-linejoin="miter" marker-start="none" marker-end="none" stroke-miterlimit="0.00006103515625"/>
  <path d="M 427.208,405.29 C 428.032,405.285 428.12,405.157 428.165,403.88 L 426.332,403.88 C 426.402,405.172 426.479,405.293 427.208,405.29 Z" fill="#ffffff" stroke="none" stroke-width="0.195" stroke-linejoin="miter" marker-start="none" marker-end="none" stroke-miterlimit="0.00006103515625"/>
  <path d="M 424.261,403.601 C 424.458,404.583 425.102,405.042 426.112,405.135 C 426.123,403.826 425.713,403.496 424.261,403.601 Z" fill="#ffffff" stroke="none" stroke-width="0.195" stroke-linejoin="miter" marker-start="none" marker-end="none" stroke-miterlimit="0.00006103515625"/>
  <path d="M 428.366,405.098 C 429.389,405.03 429.942,404.437 430.148,403.471 C 428.459,403.649 428.201,403.883 428.366,405.098 Z" fill="#ffffff" stroke="none" stroke-width="0.195" stroke-linejoin="miter" marker-start="none" marker-end="none" stroke-miterlimit="0.00006103515625"/>
  <path d="M 430.196,404.411 C 430.721,403.914 431.16,403.499 431.601,403.084 C 431.55,403.033 431.501,402.984 431.451,402.934 C 430.767,403.114 430.222,403.434 430.196,404.411 Z" fill="#ffffff" stroke="none" stroke-width="0.195" stroke-linejoin="miter" marker-start="none" marker-end="none" stroke-miterlimit="0.00006103515625"/>
  <path d="M 422.826,403.067 C 423.198,403.488 423.577,403.909 423.95,404.33 C 424.044,404.239 424.134,404.152 424.224,404.062 C 423.84,403.657 423.456,403.253 423.074,402.846 C 422.99,402.92 422.908,402.993 422.826,403.067 Z" fill="#ffffff" stroke="none" stroke-width="0.195" stroke-linejoin="miter" marker-start="none" marker-end="none" stroke-miterlimit="0.00006103515625"/>
  <path d="M 426.182,403.183 C 426.207,403.327 426.43,403.524 426.581,403.542 C 427.007,403.592 427.445,403.595 427.872,403.548 C 428.028,403.527 428.259,403.33 428.284,403.183 C 428.377,402.655 428.394,402.112 428.445,401.521 L 426.004,401.521 C 426.063,402.137 426.086,402.668 426.182,403.183 Z" fill="#ffffff" stroke="none" stroke-width="0.195" stroke-linejoin="miter" marker-start="none" marker-end="none" stroke-miterlimit="0.00006103515625"/>
  <path d="M 425.9,403.428 C 425.823,402.747 425.749,402.137 425.677,401.502 C 424.973,401.442 424.309,401.383 423.634,401.327 C 423.842,403.205 423.857,403.228 425.9,403.428 Z" fill="#ffffff" stroke="none" stroke-width="0.195" stroke-linejoin="miter" marker-start="none" marker-end="none" stroke-miterlimit="0.00006103515625"/>
  <path d="M 428.778,401.512 C 428.705,402.202 428.643,402.799 428.572,403.471 C 430.38,403.281 430.77,402.858 430.598,401.321 C 429.99,401.383 429.38,401.447 428.778,401.512 Z" fill="#ffffff" stroke="none" stroke-width="0.195" stroke-linejoin="miter" marker-start="none" marker-end="none" stroke-miterlimit="0.00006103515625"/>
  <path d="M 423.487,402.807 C 423.244,401.028 423.453,401.213 421.964,401.058 C 422.017,402.084 422.585,402.589 423.487,402.807 Z" fill="#ffffff" stroke="none" stroke-width="0.195" stroke-linejoin="miter" marker-start="none" marker-end="none" stroke-miterlimit="0.00006103515625"/>
  <path d="M 431.128,399.16 C 431.128,399.728 431.128,400.298 431.128,400.874 C 432.578,400.736 432.649,400.671 432.533,399.654 C 432.479,399.185 431.979,399.004 431.128,399.16 Z" fill="#ffffff" stroke="none" stroke-width="0.195" stroke-linejoin="miter" marker-start="none" marker-end="none" stroke-miterlimit="0.00006103515625"/>
  <path d="M 421.848,400.662 C 422.289,400.747 422.724,400.829 423.173,400.914 C 423.173,400.264 423.173,399.699 423.173,399.134 C 421.857,398.985 421.709,399.145 421.848,400.662 Z" fill="#ffffff" stroke="none" stroke-width="0.195" stroke-linejoin="miter" marker-start="none" marker-end="none" stroke-miterlimit="0.00006103515625"/>
  <path d="M 426.047,401.169 L 428.462,401.169 C 428.462,400.353 428.462,399.608 428.462,398.769 L 426.047,398.769 C 426.047,399.617 426.047,400.397 426.047,401.169 Z" fill="#ffffff" stroke="none" stroke-width="0.195" stroke-linejoin="miter" marker-start="none" marker-end="none" stroke-miterlimit="0.00006103515625"/>
  <path d="M 423.53,398.942 C 423.53,399.623 423.53,400.242 423.53,400.987 C 424.278,401.058 424.959,401.123 425.665,401.191 C 425.665,400.357 425.665,399.595 425.665,398.733 C 424.936,398.807 424.258,398.874 423.53,398.942 Z" fill="#ffffff" stroke="none" stroke-width="0.195" stroke-linejoin="miter" marker-start="none" marker-end="none" stroke-miterlimit="0.00006103515625"/>
  <path d="M 421.975,398.906 C 423.354,398.677 423.445,398.557 423.499,396.973 C 422.298,397.355 422.004,397.719 421.975,398.906 Z" fill="#ffffff" stroke="none" stroke-width="0.195" stroke-linejoin="miter" marker-start="none" marker-end="none" stroke-miterlimit="0.00006103515625"/>
  <path d="M 428.79,398.434 C 429.457,398.499 430.07,398.555 430.748,398.622 C 430.44,396.569 430.4,396.527 428.586,396.354 C 428.654,397.052 428.722,397.732 428.79,398.434 Z" fill="#ffffff" stroke="none" stroke-width="0.195" stroke-linejoin="miter" marker-start="none" marker-end="none" stroke-miterlimit="0.00006103515625"/>
  <path d="M 423.614,398.622 C 424.306,398.555 424.981,398.487 425.679,398.419 C 425.749,397.713 425.82,397.055 425.894,396.315 C 423.848,396.628 423.845,396.465 423.614,398.622 Z" fill="#ffffff" stroke="none" stroke-width="0.195" stroke-linejoin="miter" marker-start="none" marker-end="none" stroke-miterlimit="0.00006103515625"/>
  <path d="M 422.69,396.838 C 423.608,396.718 423.976,396.284 423.965,395.486 C 423.577,395.896 423.191,396.303 422.69,396.838 Z" fill="#ffffff" stroke="none" stroke-width="0.195" stroke-linejoin="miter" marker-start="none" marker-end="none" stroke-miterlimit="0.00006103515625"/>
  <path d="M 431.572,396.699 C 431.171,396.303 430.77,395.908 430.234,395.377 C 430.332,396.342 430.77,396.699 431.572,396.699 Z" fill="#ffffff" stroke="none" stroke-width="0.195" stroke-linejoin="miter" marker-start="none" marker-end="none" stroke-miterlimit="0.00006103515625"/>
  <path d="M 424.227,396.249 C 425.986,396.061 426.18,395.899 426.1,394.659 C 424.871,394.846 424.634,395.046 424.227,396.249 Z" fill="#ffffff" stroke="none" stroke-width="0.195" stroke-linejoin="miter" marker-start="none" marker-end="none" stroke-miterlimit="0.00006103515625"/>
  <path d="M 426.981,394.535 C 426.066,394.634 426.572,395.402 426.222,395.874 L 428.151,395.874 C 427.97,394.495 427.926,394.433 426.981,394.535 Z" fill="#ffffff" stroke="none" stroke-width="0.195" stroke-linejoin="miter" marker-start="none" marker-end="none" stroke-miterlimit="0.00006103515625"/>
 </g>
</svg>
