<?xml version="1.0" standalone="no"?>
<!DOCTYPE svg PUBLIC "-//W3C//DTD SVG 1.1//EN" "http://www.w3.org/Graphics/SVG/1.1/DTD/svg11.dtd">
<!--Generator: Xara Designer (www.xara.com), SVG filter version: 6.6.0.9-->
<svg fill="none" fill-rule="evenodd" stroke="black" stroke-width="0.501" stroke-linejoin="bevel" stroke-miterlimit="10" font-family="Times New Roman" font-size="16" style="font-variant-ligatures:none" xmlns:xlink="http://www.w3.org/1999/xlink" xmlns="http://www.w3.org/2000/svg" version="1.1" overflow="visible" width="53.662pt" height="11.124pt" viewBox="423.8 -405.453 53.662 11.124">
 <defs>
  <style type="text/css">@import url('https://themes.googleusercontent.com/fonts/css?family=Open Sans:400,600');</style>
 </defs>
 <g id="Layer 1" transform="scale(1 -1)">
  <path d="M 439.569,394.816 C 439.173,394.991 438.843,395.228 438.577,395.527 C 438.312,395.825 438.113,396.165 437.983,396.547 C 437.853,396.927 437.788,397.324 437.788,397.735 L 437.788,397.956 C 437.788,398.391 437.856,398.802 437.994,399.192 C 438.133,399.578 438.337,399.922 438.605,400.222 C 438.874,400.521 439.209,400.756 439.603,400.929 C 439.997,401.1 440.454,401.186 440.969,401.186 C 441.537,401.186 442.038,401.073 442.471,400.85 C 442.905,400.626 443.25,400.317 443.507,399.924 C 443.765,399.534 443.91,399.081 443.938,398.575 L 441.945,398.575 C 441.922,398.82 441.831,399.03 441.67,399.202 C 441.509,399.374 441.276,399.459 440.969,399.459 C 440.709,399.459 440.493,399.393 440.326,399.258 C 440.157,399.124 440.032,398.936 439.95,398.699 C 439.867,398.458 439.827,398.175 439.827,397.846 C 439.827,397.54 439.862,397.267 439.933,397.03 C 440.003,396.789 440.122,396.605 440.291,396.473 C 440.46,396.343 440.686,396.277 440.969,396.277 C 441.179,396.277 441.355,396.315 441.497,396.391 C 441.638,396.464 441.75,396.57 441.832,396.708 C 441.914,396.848 441.967,397.01 441.989,397.195 L 443.984,397.195 C 443.954,396.675 443.806,396.215 443.541,395.817 C 443.275,395.423 442.923,395.112 442.481,394.888 C 442.041,394.665 441.537,394.552 440.969,394.552 C 440.431,394.552 439.965,394.641 439.569,394.816 Z M 468.88,394.822 C 468.476,395 468.136,395.243 467.859,395.549 C 467.584,395.855 467.372,396.2 467.228,396.579 C 467.164,396.742 467.116,396.905 467.081,397.069 C 467.048,396.865 467.004,396.671 466.941,396.485 C 466.814,396.1 466.628,395.763 466.382,395.475 C 466.135,395.188 465.838,394.968 465.49,394.809 C 465.144,394.653 464.749,394.575 464.308,394.575 C 463.8,394.575 463.358,394.681 462.981,394.888 C 462.603,395.097 462.308,395.404 462.096,395.807 C 462.031,395.926 461.978,396.051 461.933,396.187 L 461.933,394.777 L 460.318,394.777 L 460.318,402.955 L 462.358,402.955 L 462.357,400.042 L 462.365,400.037 L 462.364,400.037 C 462.561,400.367 462.815,400.626 463.126,400.81 C 463.496,401.03 463.923,401.142 464.409,401.142 C 464.827,401.142 465.205,401.065 465.54,400.911 C 465.877,400.757 466.163,400.54 466.399,400.261 C 466.633,399.98 466.814,399.651 466.941,399.27 C 467.004,399.084 467.048,398.891 467.081,398.689 C 467.116,398.859 467.164,399.022 467.228,399.185 C 467.372,399.57 467.583,399.911 467.855,400.211 C 468.127,400.51 468.462,400.747 468.857,400.923 C 469.253,401.098 469.701,401.186 470.2,401.186 C 470.866,401.186 471.431,401.036 471.893,400.737 C 472.359,400.439 472.712,400.044 472.959,399.556 C 473.205,399.066 473.329,398.533 473.329,397.956 L 473.329,397.309 L 468.939,397.309 C 468.963,397.185 468.995,397.071 469.035,396.966 C 469.133,396.716 469.283,396.524 469.484,396.391 C 469.686,396.255 469.949,396.188 470.269,396.188 C 470.552,396.188 470.787,396.237 470.97,396.334 C 471.152,396.43 471.281,396.562 471.357,396.725 L 473.216,396.725 C 473.127,396.307 472.949,395.935 472.684,395.604 C 472.419,395.278 472.082,395.02 471.675,394.832 C 471.268,394.645 470.799,394.552 470.269,394.552 C 469.746,394.552 469.283,394.643 468.88,394.822 Z M 447.317,395.263 C 446.932,395.724 446.74,396.427 446.74,397.377 L 446.74,400.962 L 448.78,400.962 L 448.78,397.32 C 448.78,397.043 448.861,396.819 449.026,396.647 C 449.191,396.475 449.41,396.391 449.687,396.391 C 449.963,396.391 450.186,396.475 450.36,396.647 C 450.531,396.819 450.618,397.052 450.618,397.342 L 450.618,400.962 L 452.657,400.962 L 452.657,394.777 L 451.043,394.777 L 451.043,396.23 C 451.008,396.076 450.965,395.934 450.914,395.8 C 450.753,395.386 450.516,395.079 450.203,394.877 C 449.888,394.676 449.5,394.575 449.038,394.575 L 448.947,394.575 C 448.245,394.575 447.701,394.805 447.317,395.263 Z M 455.932,394.888 C 455.556,395.097 455.261,395.404 455.048,395.807 C 454.985,395.926 454.931,396.051 454.885,396.187 L 454.885,394.777 L 453.271,394.777 L 453.271,402.955 L 455.311,402.955 L 455.311,400.029 C 455.509,400.363 455.766,400.623 456.077,400.81 C 456.447,401.03 456.875,401.142 457.361,401.142 C 457.78,401.142 458.156,401.065 458.493,400.911 C 458.829,400.757 459.114,400.54 459.35,400.261 C 459.585,399.98 459.765,399.651 459.893,399.27 C 460.02,398.889 460.083,398.47 460.083,398.014 L 460.083,397.747 C 460.083,397.29 460.02,396.87 459.893,396.485 C 459.765,396.1 459.58,395.763 459.334,395.475 C 459.086,395.188 458.789,394.968 458.442,394.809 C 458.094,394.653 457.701,394.575 457.26,394.575 C 456.753,394.575 456.31,394.681 455.932,394.888 Z M 444.217,394.777 L 444.217,401.47 L 444.137,401.47 L 444.137,401.477 L 443.521,401.477 L 443.521,402.955 L 444.137,402.955 L 444.137,402.956 L 446.256,402.956 L 446.256,394.777 L 444.217,394.777 Z M 473.517,394.777 L 473.517,400.962 L 475.131,400.962 L 475.131,398.781 C 475.189,399.409 475.363,399.919 475.651,400.312 C 476.013,400.804 476.534,401.051 477.215,401.051 L 477.462,401.051 L 477.462,399.302 L 476.991,399.302 C 476.534,399.302 476.182,399.18 475.931,398.933 C 475.682,398.687 475.556,398.332 475.556,397.868 L 475.556,394.777 L 473.517,394.777 Z M 454.885,396.187 L 454.885,396.19 L 454.882,396.19 C 454.882,396.189 454.884,396.188 454.885,396.187 Z M 461.933,396.187 L 461.933,396.198 L 461.929,396.196 C 461.93,396.192 461.931,396.19 461.933,396.187 Z M 451.047,396.244 L 451.045,396.245 L 451.043,396.248 L 451.043,396.23 C 451.045,396.236 451.045,396.24 451.047,396.244 Z M 457.389,396.463 C 457.593,396.601 457.754,396.792 457.871,397.041 C 457.987,397.286 458.046,397.566 458.046,397.88 C 458.046,398.201 457.987,398.48 457.871,398.716 C 457.754,398.95 457.596,399.132 457.396,399.264 C 457.192,399.395 456.954,399.459 456.677,399.459 C 456.431,399.459 456.202,399.405 455.988,399.291 C 455.775,399.18 455.601,399.017 455.468,398.798 C 455.333,398.582 455.266,398.319 455.266,398.014 L 455.266,397.634 C 455.266,397.342 455.337,397.094 455.478,396.888 C 455.62,396.683 455.801,396.526 456.017,396.417 C 456.232,396.309 456.454,396.255 456.677,396.255 C 456.948,396.255 457.184,396.324 457.389,396.463 Z M 464.436,396.463 C 464.643,396.601 464.804,396.792 464.92,397.041 C 465.033,397.286 465.092,397.566 465.092,397.88 C 465.092,398.201 465.033,398.48 464.92,398.716 C 464.804,398.95 464.645,399.132 464.442,399.264 C 464.241,399.395 464.002,399.459 463.725,399.459 C 463.479,399.459 463.248,399.405 463.036,399.291 C 462.823,399.18 462.65,399.017 462.515,398.798 C 462.38,398.582 462.313,398.319 462.313,398.014 L 462.313,397.634 C 462.313,397.342 462.385,397.094 462.527,396.888 C 462.668,396.683 462.847,396.526 463.064,396.417 C 463.281,396.309 463.501,396.255 463.725,396.255 C 463.994,396.255 464.231,396.324 464.436,396.463 Z M 468.939,397.311 L 468.938,397.309 L 468.939,397.309 C 468.939,397.309 468.939,397.311 468.939,397.311 Z M 468.934,398.406 L 468.931,398.406 L 468.932,398.402 C 468.932,398.405 468.932,398.405 468.934,398.406 Z M 471.398,398.406 L 471.407,398.421 C 471.384,398.56 471.349,398.688 471.305,398.804 C 471.212,399.047 471.074,399.232 470.891,399.359 C 470.708,399.485 470.479,399.55 470.2,399.55 C 469.933,399.55 469.7,399.488 469.503,399.364 C 469.303,399.241 469.154,399.056 469.048,398.804 C 468.997,398.687 468.96,398.553 468.934,398.406 L 471.398,398.406 Z M 455.311,399.999 L 455.311,400.029 C 455.304,400.018 455.299,400.01 455.294,399.999 L 455.295,399.999 L 455.311,399.999 Z M 455.311,400.017 L 455.311,400.029 L 455.311,400.029 L 455.311,400.017 Z" fill="#e2433d" stroke-width="0.3" stroke-linecap="round" stroke="none" stroke-linejoin="miter" marker-start="none" marker-end="none"/>
  <path d="M 438.894,395.566 C 438.498,395.741 438.168,395.978 437.902,396.277 C 437.637,396.575 437.438,396.915 437.308,397.297 C 437.178,397.677 437.113,398.074 437.113,398.485 L 437.113,398.706 C 437.113,399.141 437.181,399.552 437.319,399.942 C 437.458,400.328 437.662,400.672 437.93,400.972 C 438.199,401.271 438.534,401.506 438.928,401.679 C 439.322,401.85 439.779,401.936 440.294,401.936 C 440.862,401.936 441.363,401.823 441.796,401.6 C 442.23,401.376 442.575,401.067 442.832,400.674 C 443.09,400.284 443.235,399.831 443.263,399.325 L 441.27,399.325 C 441.247,399.57 441.156,399.78 440.995,399.952 C 440.834,400.124 440.601,400.209 440.294,400.209 C 440.034,400.209 439.818,400.143 439.651,400.008 C 439.482,399.874 439.357,399.686 439.275,399.449 C 439.192,399.208 439.152,398.925 439.152,398.596 C 439.152,398.29 439.187,398.017 439.258,397.78 C 439.328,397.539 439.447,397.355 439.616,397.223 C 439.785,397.093 440.011,397.027 440.294,397.027 C 440.504,397.027 440.68,397.065 440.822,397.141 C 440.963,397.214 441.075,397.32 441.157,397.458 C 441.239,397.598 441.292,397.76 441.314,397.945 L 443.309,397.945 C 443.279,397.425 443.131,396.965 442.866,396.567 C 442.6,396.173 442.248,395.862 441.806,395.638 C 441.366,395.415 440.862,395.302 440.294,395.302 C 439.756,395.302 439.29,395.391 438.894,395.566 Z M 468.205,395.572 C 467.801,395.75 467.461,395.993 467.184,396.299 C 466.909,396.605 466.697,396.95 466.553,397.329 C 466.489,397.492 466.441,397.655 466.406,397.819 C 466.373,397.615 466.329,397.421 466.266,397.235 C 466.139,396.85 465.953,396.513 465.707,396.225 C 465.46,395.938 465.163,395.718 464.815,395.559 C 464.469,395.403 464.074,395.325 463.633,395.325 C 463.125,395.325 462.683,395.431 462.306,395.638 C 461.928,395.847 461.633,396.154 461.421,396.557 C 461.356,396.676 461.303,396.801 461.258,396.937 L 461.258,395.527 L 459.643,395.527 L 459.643,403.705 L 461.683,403.705 L 461.682,400.792 L 461.69,400.787 L 461.689,400.787 C 461.886,401.117 462.14,401.376 462.451,401.56 C 462.821,401.78 463.248,401.892 463.734,401.892 C 464.152,401.892 464.53,401.815 464.865,401.661 C 465.202,401.507 465.488,401.29 465.724,401.011 C 465.958,400.73 466.139,400.401 466.266,400.02 C 466.329,399.834 466.373,399.641 466.406,399.439 C 466.441,399.609 466.489,399.772 466.553,399.935 C 466.697,400.32 466.908,400.661 467.18,400.961 C 467.452,401.26 467.787,401.497 468.182,401.673 C 468.578,401.848 469.026,401.936 469.525,401.936 C 470.191,401.936 470.756,401.786 471.218,401.487 C 471.684,401.189 472.037,400.794 472.284,400.306 C 472.53,399.816 472.654,399.283 472.654,398.706 L 472.654,398.059 L 468.264,398.059 C 468.288,397.935 468.32,397.821 468.36,397.716 C 468.458,397.466 468.608,397.274 468.809,397.141 C 469.011,397.005 469.274,396.938 469.594,396.938 C 469.877,396.938 470.112,396.987 470.295,397.084 C 470.477,397.18 470.606,397.312 470.682,397.475 L 472.541,397.475 C 472.452,397.057 472.274,396.685 472.009,396.354 C 471.744,396.028 471.407,395.77 471,395.582 C 470.593,395.395 470.124,395.302 469.594,395.302 C 469.071,395.302 468.608,395.393 468.205,395.572 Z M 446.642,396.013 C 446.257,396.474 446.065,397.177 446.065,398.127 L 446.065,401.712 L 448.105,401.712 L 448.105,398.07 C 448.105,397.793 448.186,397.569 448.351,397.397 C 448.516,397.225 448.735,397.141 449.012,397.141 C 449.288,397.141 449.511,397.225 449.685,397.397 C 449.856,397.569 449.943,397.802 449.943,398.092 L 449.943,401.712 L 451.982,401.712 L 451.982,395.527 L 450.368,395.527 L 450.368,396.98 C 450.333,396.826 450.29,396.684 450.239,396.55 C 450.078,396.136 449.841,395.829 449.528,395.627 C 449.213,395.426 448.825,395.325 448.363,395.325 L 448.272,395.325 C 447.57,395.325 447.026,395.555 446.642,396.013 Z M 455.257,395.638 C 454.881,395.847 454.586,396.154 454.373,396.557 C 454.31,396.676 454.256,396.801 454.21,396.937 L 454.21,395.527 L 452.596,395.527 L 452.596,403.705 L 454.636,403.705 L 454.636,400.779 C 454.834,401.113 455.091,401.373 455.402,401.56 C 455.772,401.78 456.2,401.892 456.686,401.892 C 457.105,401.892 457.481,401.815 457.818,401.661 C 458.154,401.507 458.439,401.29 458.675,401.011 C 458.91,400.73 459.09,400.401 459.218,400.02 C 459.345,399.639 459.408,399.22 459.408,398.764 L 459.408,398.497 C 459.408,398.04 459.345,397.62 459.218,397.235 C 459.09,396.85 458.905,396.513 458.659,396.225 C 458.411,395.938 458.114,395.718 457.767,395.559 C 457.419,395.403 457.026,395.325 456.585,395.325 C 456.078,395.325 455.635,395.431 455.257,395.638 Z M 443.542,395.527 L 443.542,402.22 L 443.462,402.22 L 443.462,402.227 L 442.846,402.227 L 442.846,403.705 L 443.462,403.705 L 443.462,403.706 L 445.581,403.706 L 445.581,395.527 L 443.542,395.527 Z M 472.842,395.527 L 472.842,401.712 L 474.456,401.712 L 474.456,399.531 C 474.514,400.159 474.688,400.669 474.976,401.062 C 475.338,401.554 475.859,401.801 476.54,401.801 L 476.787,401.801 L 476.787,400.052 L 476.316,400.052 C 475.859,400.052 475.507,399.93 475.256,399.683 C 475.007,399.437 474.881,399.082 474.881,398.618 L 474.881,395.527 L 472.842,395.527 Z M 454.21,396.937 L 454.21,396.94 L 454.207,396.94 C 454.207,396.939 454.209,396.938 454.21,396.937 Z M 461.258,396.937 L 461.258,396.948 L 461.254,396.946 C 461.255,396.942 461.256,396.94 461.258,396.937 Z M 450.372,396.994 L 450.37,396.995 L 450.368,396.998 L 450.368,396.98 C 450.37,396.986 450.37,396.99 450.372,396.994 Z M 456.714,397.213 C 456.918,397.351 457.079,397.542 457.196,397.791 C 457.312,398.036 457.371,398.316 457.371,398.63 C 457.371,398.951 457.312,399.23 457.196,399.466 C 457.079,399.7 456.921,399.882 456.721,400.014 C 456.517,400.145 456.279,400.209 456.002,400.209 C 455.756,400.209 455.527,400.155 455.313,400.041 C 455.1,399.93 454.926,399.767 454.793,399.548 C 454.658,399.332 454.591,399.069 454.591,398.764 L 454.591,398.384 C 454.591,398.092 454.662,397.844 454.803,397.638 C 454.945,397.433 455.126,397.276 455.342,397.167 C 455.557,397.059 455.779,397.005 456.002,397.005 C 456.273,397.005 456.509,397.074 456.714,397.213 Z M 463.761,397.213 C 463.968,397.351 464.129,397.542 464.245,397.791 C 464.358,398.036 464.417,398.316 464.417,398.63 C 464.417,398.951 464.358,399.23 464.245,399.466 C 464.129,399.7 463.97,399.882 463.767,400.014 C 463.566,400.145 463.327,400.209 463.05,400.209 C 462.804,400.209 462.573,400.155 462.361,400.041 C 462.148,399.93 461.975,399.767 461.84,399.548 C 461.705,399.332 461.638,399.069 461.638,398.764 L 461.638,398.384 C 461.638,398.092 461.71,397.844 461.852,397.638 C 461.993,397.433 462.172,397.276 462.389,397.167 C 462.606,397.059 462.826,397.005 463.05,397.005 C 463.319,397.005 463.556,397.074 463.761,397.213 Z M 468.264,398.061 L 468.263,398.059 L 468.264,398.059 C 468.264,398.059 468.264,398.061 468.264,398.061 Z M 468.259,399.156 L 468.256,399.156 L 468.257,399.152 C 468.257,399.155 468.257,399.155 468.259,399.156 Z M 470.723,399.156 L 470.732,399.171 C 470.709,399.31 470.674,399.438 470.63,399.554 C 470.537,399.797 470.399,399.982 470.216,400.109 C 470.033,400.235 469.804,400.3 469.525,400.3 C 469.258,400.3 469.025,400.238 468.828,400.114 C 468.628,399.991 468.479,399.806 468.373,399.554 C 468.322,399.437 468.285,399.303 468.259,399.156 L 470.723,399.156 Z M 454.636,400.749 L 454.636,400.779 C 454.629,400.768 454.624,400.76 454.619,400.749 L 454.62,400.749 L 454.636,400.749 Z M 454.636,400.767 L 454.636,400.779 L 454.636,400.779 L 454.636,400.767 Z" fill="#ffffff" stroke-width="0.3" stroke-linecap="round" stroke="none" stroke-linejoin="miter" marker-start="none" marker-end="none"/>
  <path d="M 434.812,398.958 C 435.219,401.756 433.715,404.692 430.078,405.44 C 429.864,405.448 429.648,405.453 429.435,405.453 C 429.411,405.443 429.388,405.437 429.364,405.435 C 429.332,405.435 429.297,405.44 429.262,405.453 C 429.051,405.448 428.837,405.44 428.627,405.427 C 428.624,405.422 428.624,405.419 428.624,405.413 C 426.899,405.107 425.476,404.252 424.551,402.67 C 423.845,401.469 423.658,400.161 423.9,398.809 C 424.364,396.235 426.834,394.263 429.45,394.331 C 432.087,394.395 434.437,396.404 434.812,398.958 Z" fill="#e2433d" stroke="none" stroke-width="0.18" stroke-linejoin="miter" marker-start="none" marker-end="none" stroke-miterlimit="0.00006103515625"/>
  <g id="Group" fill="#ffffff" stroke-linejoin="miter" stroke="none" stroke-width="0.18" stroke-miterlimit="0.00006103515625">
   <path d="M 429.39,404.869 C 430.15,404.865 430.232,404.747 430.273,403.569 L 428.583,403.569 C 428.647,404.76 428.718,404.872 429.39,404.869 Z" marker-start="none" marker-end="none"/>
   <path d="M 426.673,403.312 C 426.854,404.217 427.448,404.641 428.38,404.726 C 428.39,403.519 428.012,403.215 426.673,403.312 Z" marker-start="none" marker-end="none"/>
   <path d="M 430.458,404.692 C 431.402,404.629 431.912,404.083 432.102,403.192 C 430.544,403.356 430.306,403.572 430.458,404.692 Z" marker-start="none" marker-end="none"/>
   <path d="M 432.146,404.059 C 432.63,403.6 433.035,403.218 433.442,402.835 C 433.395,402.788 433.35,402.743 433.303,402.696 C 432.673,402.862 432.17,403.158 432.146,404.059 Z" marker-start="none" marker-end="none"/>
   <path d="M 425.349,402.819 C 425.692,403.207 426.042,403.596 426.386,403.984 C 426.472,403.9 426.555,403.82 426.638,403.737 C 426.284,403.363 425.93,402.991 425.578,402.615 C 425.5,402.684 425.425,402.751 425.349,402.819 Z" marker-start="none" marker-end="none"/>
   <path d="M 428.444,402.926 C 428.467,403.059 428.673,403.241 428.812,403.257 C 429.205,403.303 429.609,403.306 430.003,403.263 C 430.147,403.243 430.36,403.062 430.383,402.926 C 430.469,402.439 430.484,401.938 430.531,401.393 L 428.28,401.393 C 428.334,401.961 428.356,402.451 428.444,402.926 Z" marker-start="none" marker-end="none"/>
   <path d="M 428.184,403.152 C 428.113,402.524 428.045,401.961 427.979,401.376 C 427.329,401.32 426.717,401.266 426.094,401.214 C 426.286,402.946 426.3,402.968 428.184,403.152 Z" marker-start="none" marker-end="none"/>
   <path d="M 430.838,401.385 C 430.771,402.021 430.714,402.572 430.648,403.192 C 432.316,403.016 432.675,402.626 432.517,401.209 C 431.956,401.266 431.394,401.325 430.838,401.385 Z" marker-start="none" marker-end="none"/>
   <path d="M 425.959,402.579 C 425.735,400.939 425.927,401.109 424.554,400.966 C 424.603,401.913 425.127,402.378 425.959,402.579 Z" marker-start="none" marker-end="none"/>
   <path d="M 433.006,399.216 C 433.006,399.74 433.006,400.265 433.006,400.797 C 434.343,400.669 434.408,400.609 434.301,399.672 C 434.252,399.239 433.79,399.072 433.006,399.216 Z" marker-start="none" marker-end="none"/>
   <path d="M 424.447,400.601 C 424.854,400.68 425.255,400.755 425.669,400.834 C 425.669,400.234 425.669,399.713 425.669,399.192 C 424.456,399.055 424.319,399.202 424.447,400.601 Z" marker-start="none" marker-end="none"/>
   <path d="M 428.32,401.069 L 430.547,401.069 C 430.547,400.316 430.547,399.629 430.547,398.855 L 428.32,398.855 C 428.32,399.637 428.32,400.357 428.32,401.069 Z" marker-start="none" marker-end="none"/>
   <path d="M 425.998,399.015 C 425.998,399.643 425.998,400.214 425.998,400.901 C 426.688,400.966 427.316,401.026 427.967,401.089 C 427.967,400.32 427.967,399.617 427.967,398.822 C 427.295,398.89 426.67,398.952 425.998,399.015 Z" marker-start="none" marker-end="none"/>
   <path d="M 424.564,398.982 C 425.836,398.77 425.92,398.66 425.97,397.199 C 424.862,397.551 424.591,397.887 424.564,398.982 Z" marker-start="none" marker-end="none"/>
   <path d="M 430.849,398.546 C 431.465,398.606 432.03,398.658 432.655,398.72 C 432.371,396.826 432.334,396.788 430.661,396.628 C 430.724,397.272 430.787,397.899 430.849,398.546 Z" marker-start="none" marker-end="none"/>
   <path d="M 426.076,398.72 C 426.714,398.658 427.337,398.595 427.98,398.533 C 428.045,397.881 428.11,397.275 428.179,396.592 C 426.292,396.881 426.289,396.731 426.076,398.72 Z" marker-start="none" marker-end="none"/>
   <path d="M 425.224,397.074 C 426.07,396.964 426.41,396.564 426.4,395.828 C 426.042,396.206 425.686,396.581 425.224,397.074 Z" marker-start="none" marker-end="none"/>
   <path d="M 433.415,396.946 C 433.045,396.581 432.675,396.217 432.181,395.727 C 432.272,396.617 432.675,396.946 433.415,396.946 Z" marker-start="none" marker-end="none"/>
   <path d="M 426.641,396.531 C 428.263,396.358 428.442,396.209 428.369,395.065 C 427.235,395.237 427.017,395.422 426.641,396.531 Z" marker-start="none" marker-end="none"/>
   <path d="M 429.181,394.951 C 428.337,395.042 428.804,395.75 428.481,396.185 L 430.26,396.185 C 430.093,394.914 430.053,394.857 429.181,394.951 Z" marker-start="none" marker-end="none"/>
  </g>
 </g>
</svg>
