<?xml version="1.0" standalone="no"?>
<!DOCTYPE svg PUBLIC "-//W3C//DTD SVG 1.1//EN" "http://www.w3.org/Graphics/SVG/1.1/DTD/svg11.dtd">
<!--Generator: Xara Designer (www.xara.com), SVG filter version: 6.6.0.9-->
<svg fill="none" fill-rule="evenodd" stroke="black" stroke-width="0.501" stroke-linejoin="bevel" stroke-miterlimit="10" font-family="Times New Roman" font-size="16" style="font-variant-ligatures:none" xmlns:xlink="http://www.w3.org/1999/xlink" xmlns="http://www.w3.org/2000/svg" version="1.1" overflow="visible" width="94.946pt" height="16.12pt" viewBox="250.095 -484.495 94.946 16.12">
 <defs>
  <style type="text/css">@import url('https://themes.googleusercontent.com/fonts/css?family=Open Sans:400,600');</style>
 </defs>
 <g id="Layer 1" transform="scale(1 -1)">
  <rect x="-6.848" y="-8.312" width="13.696" height="16.624" rx="6.2501029795414" ry="6.2501029795414" transform="translate(336.729 475.223) rotate(90)" fill="#ee4d00" stroke-linecap="round" stroke="none" stroke-width="0.27" stroke-linejoin="miter"/>
  <path d="M 332.91,470.786 C 332.528,470.964 332.23,471.22 332.014,471.555 C 331.797,471.89 331.689,472.29 331.689,472.756 C 331.689,473.281 331.829,473.707 332.109,474.033 C 332.389,474.36 332.774,474.599 333.266,474.752 C 333.757,474.904 334.32,474.98 334.956,474.98 L 336.061,474.98 C 336.057,475.289 335.984,475.52 335.839,475.673 C 335.691,475.83 335.447,475.908 335.108,475.908 C 334.947,475.908 334.71,475.904 334.397,475.895 C 334.083,475.887 333.753,475.874 333.405,475.857 C 333.058,475.84 332.74,475.823 332.452,475.806 L 332.452,477.738 C 332.655,477.755 332.897,477.772 333.177,477.789 C 333.456,477.806 333.746,477.819 334.047,477.827 C 334.348,477.836 334.625,477.84 334.88,477.84 C 335.6,477.84 336.212,477.734 336.716,477.522 C 337.22,477.31 337.606,476.993 337.873,476.569 C 338.14,476.145 338.273,475.607 338.273,474.955 L 338.273,470.697 L 336.443,470.697 L 336.442,472 C 336.388,471.839 336.323,471.691 336.246,471.555 C 336.055,471.22 335.793,470.964 335.458,470.786 C 335.123,470.608 334.71,470.519 334.219,470.519 C 333.727,470.519 333.291,470.608 332.91,470.786 Z M 339.151,470.697 L 339.151,475.995 L 339.124,476.035 L 338.262,476.035 L 338.262,477.713 L 339.104,477.713 L 339.105,477.717 L 341.456,477.717 L 341.459,476.035 L 341.465,476.035 L 341.465,470.697 L 339.151,470.697 Z M 335.496,472.178 C 335.653,472.25 335.782,472.375 335.884,472.553 C 335.931,472.636 335.97,472.735 335.999,472.849 L 335.998,472.85 L 336.056,473.27 L 336.061,473.282 C 336.061,473.285 336.061,473.287 336.062,473.29 L 336.062,473.772 L 336.056,473.78 L 336.054,473.786 L 334.956,473.786 C 334.642,473.786 334.401,473.707 334.231,473.55 C 334.062,473.394 333.977,473.184 333.977,472.921 C 333.977,472.667 334.062,472.462 334.231,472.305 C 334.401,472.148 334.642,472.07 334.956,472.07 C 335.159,472.07 335.339,472.106 335.496,472.178 Z M 336.062,473.284 L 336.063,473.288 L 336.062,473.29 L 336.062,473.284 Z M 336.061,474.978 L 336.062,474.98 L 336.061,474.98 L 336.061,474.978 Z M 339.17,478.596 C 338.971,478.812 338.872,479.09 338.872,479.429 C 338.872,479.768 338.971,480.045 339.17,480.261 C 339.37,480.477 339.677,480.585 340.092,480.585 C 340.516,480.585 340.825,480.477 341.02,480.261 C 341.215,480.045 341.312,479.768 341.312,479.429 C 341.312,479.09 341.215,478.812 341.02,478.596 C 340.825,478.38 340.52,478.272 340.105,478.272 C 339.681,478.272 339.37,478.38 339.17,478.596 Z" fill="#ffffff" stroke-width="0.575" stroke-linecap="round" stroke="none" stroke-linejoin="miter" marker-start="none" marker-end="none"/>
  <path d="M 253.512,468.881 C 252.752,469.218 252.118,469.673 251.61,470.246 C 251.101,470.819 250.721,471.471 250.471,472.201 C 250.22,472.932 250.095,473.691 250.095,474.479 L 250.095,474.909 C 250.095,475.74 250.227,476.528 250.492,477.273 C 250.757,478.018 251.148,478.677 251.663,479.25 C 252.179,479.823 252.817,480.275 253.576,480.604 C 254.335,480.934 255.209,481.098 256.198,481.098 C 257.287,481.098 258.247,480.884 259.078,480.454 C 259.909,480.024 260.571,479.433 261.065,478.681 C 261.56,477.929 261.836,477.065 261.893,476.091 L 258.068,476.091 C 258.025,476.564 257.849,476.965 257.541,477.295 C 257.233,477.624 256.785,477.789 256.198,477.789 C 255.696,477.789 255.285,477.66 254.962,477.402 C 254.64,477.144 254.4,476.786 254.242,476.328 C 254.085,475.869 254.006,475.325 254.006,474.694 C 254.006,474.107 254.074,473.584 254.21,473.126 C 254.346,472.667 254.575,472.313 254.898,472.062 C 255.22,471.811 255.654,471.686 256.198,471.686 C 256.599,471.686 256.936,471.757 257.208,471.901 C 257.48,472.044 257.695,472.248 257.853,472.513 C 258.01,472.778 258.111,473.09 258.154,473.448 L 261.979,473.448 C 261.922,472.445 261.639,471.564 261.13,470.805 C 260.621,470.045 259.944,469.451 259.099,469.021 C 258.254,468.591 257.287,468.376 256.198,468.376 C 255.166,468.376 254.271,468.545 253.512,468.881 Z M 309.727,468.892 C 308.953,469.236 308.301,469.701 307.771,470.289 C 307.241,470.876 306.836,471.535 306.557,472.266 C 306.438,472.574 306.345,472.886 306.277,473.202 C 306.216,472.813 306.127,472.44 306.009,472.083 C 305.766,471.345 305.407,470.701 304.935,470.149 C 304.462,469.598 303.892,469.171 303.226,468.87 C 302.56,468.57 301.804,468.419 300.959,468.419 C 299.985,468.419 299.136,468.62 298.412,469.021 C 297.689,469.422 297.123,470.009 296.715,470.783 C 296.594,471.011 296.49,471.254 296.402,471.512 L 296.403,468.806 L 293.308,468.806 L 293.308,484.494 L 297.22,484.494 L 297.219,478.907 L 297.231,478.898 L 297.23,478.899 C 297.608,479.53 298.096,480.023 298.692,480.379 C 299.401,480.801 300.221,481.013 301.152,481.013 C 301.955,481.013 302.678,480.866 303.323,480.572 C 303.968,480.278 304.516,479.863 304.967,479.326 C 305.418,478.788 305.766,478.154 306.009,477.424 C 306.127,477.069 306.216,476.699 306.277,476.311 C 306.345,476.634 306.438,476.951 306.557,477.262 C 306.836,478 307.237,478.656 307.76,479.229 C 308.283,479.802 308.924,480.257 309.684,480.593 C 310.443,480.93 311.303,481.098 312.262,481.098 C 313.538,481.098 314.619,480.812 315.507,480.239 C 316.396,479.666 317.076,478.91 317.549,477.972 C 318.022,477.033 318.258,476.012 318.258,474.909 L 318.258,473.663 L 309.841,473.663 C 309.886,473.428 309.948,473.209 310.027,473.007 C 310.214,472.527 310.5,472.158 310.887,471.901 C 311.274,471.643 311.775,471.514 312.391,471.514 C 312.936,471.514 313.384,471.607 313.735,471.793 C 314.086,471.979 314.333,472.23 314.476,472.545 L 318.043,472.545 C 317.871,471.743 317.531,471.027 317.023,470.396 C 316.514,469.766 315.869,469.272 315.088,468.913 C 314.308,468.555 313.409,468.376 312.391,468.376 C 311.388,468.376 310.5,468.548 309.727,468.892 Z M 268.372,469.741 C 267.634,470.622 267.265,471.972 267.265,473.792 L 267.265,480.669 L 271.177,480.669 L 271.177,473.684 C 271.177,473.154 271.334,472.724 271.65,472.395 C 271.965,472.065 272.387,471.901 272.917,471.901 C 273.448,471.901 273.877,472.065 274.207,472.395 C 274.536,472.724 274.701,473.169 274.701,473.727 L 274.701,480.669 L 278.612,480.669 L 278.612,468.806 L 275.518,468.806 L 275.518,471.594 C 275.451,471.299 275.368,471.025 275.271,470.772 C 274.963,469.977 274.508,469.386 273.906,468.999 C 273.304,468.613 272.559,468.419 271.671,468.419 L 271.499,468.419 C 270.152,468.419 269.11,468.86 268.372,469.741 Z M 284.895,469.021 C 284.172,469.422 283.606,470.009 283.198,470.783 C 283.077,471.011 282.973,471.254 282.885,471.512 L 282.886,468.806 L 279.791,468.806 L 279.791,484.494 L 283.703,484.494 L 283.702,478.88 C 284.082,479.52 284.573,480.02 285.175,480.379 C 285.884,480.801 286.704,481.013 287.635,481.013 C 288.438,481.013 289.161,480.866 289.806,480.572 C 290.451,480.278 290.999,479.863 291.45,479.326 C 291.901,478.788 292.249,478.154 292.492,477.424 C 292.736,476.693 292.858,475.891 292.858,475.017 L 292.858,474.501 C 292.858,473.627 292.736,472.821 292.492,472.083 C 292.249,471.345 291.89,470.701 291.418,470.149 C 290.945,469.598 290.375,469.171 289.709,468.87 C 289.043,468.57 288.287,468.419 287.442,468.419 C 286.468,468.419 285.619,468.62 284.895,469.021 Z M 262.425,468.806 L 262.425,481.644 L 262.272,481.644 L 262.272,481.657 L 261.093,481.657 L 261.093,484.494 L 262.272,484.494 L 262.272,484.495 L 266.337,484.495 L 266.337,468.806 L 262.425,468.806 Z M 318.621,468.806 L 318.621,480.669 L 321.716,480.669 L 321.715,476.486 C 321.828,477.69 322.161,478.67 322.715,479.422 C 323.41,480.368 324.409,480.841 325.713,480.841 L 326.186,480.841 L 326.186,477.488 L 325.283,477.488 C 324.409,477.488 323.732,477.252 323.253,476.779 C 322.773,476.306 322.533,475.626 322.533,474.737 L 322.533,468.806 L 318.621,468.806 Z M 282.885,471.512 L 282.885,471.519 L 282.882,471.519 C 282.883,471.516 282.884,471.514 282.885,471.512 Z M 296.402,471.512 L 296.402,471.531 L 296.396,471.529 C 296.398,471.523 296.4,471.517 296.402,471.512 Z M 275.524,471.624 L 275.523,471.625 L 275.517,471.628 L 275.518,471.594 C 275.52,471.604 275.522,471.614 275.524,471.624 Z M 287.689,472.04 C 288.083,472.305 288.391,472.674 288.613,473.147 C 288.835,473.62 288.946,474.157 288.946,474.759 C 288.946,475.375 288.835,475.909 288.613,476.36 C 288.391,476.811 288.087,477.162 287.7,477.413 C 287.313,477.664 286.855,477.789 286.324,477.789 C 285.852,477.789 285.411,477.682 285.003,477.467 C 284.594,477.252 284.261,476.937 284.003,476.521 C 283.746,476.106 283.617,475.604 283.617,475.017 L 283.617,474.286 C 283.617,473.727 283.753,473.251 284.025,472.857 C 284.297,472.463 284.641,472.162 285.057,471.954 C 285.472,471.747 285.895,471.643 286.324,471.643 C 286.84,471.643 287.295,471.775 287.689,472.04 Z M 301.206,472.04 C 301.6,472.305 301.908,472.674 302.13,473.147 C 302.352,473.62 302.463,474.157 302.463,474.759 C 302.463,475.375 302.352,475.909 302.13,476.36 C 301.908,476.811 301.604,477.162 301.217,477.413 C 300.83,477.664 300.372,477.789 299.841,477.789 C 299.369,477.789 298.928,477.682 298.52,477.467 C 298.111,477.252 297.778,476.937 297.52,476.521 C 297.263,476.106 297.134,475.604 297.134,475.017 L 297.134,474.286 C 297.134,473.727 297.27,473.251 297.542,472.857 C 297.814,472.463 298.158,472.162 298.574,471.954 C 298.989,471.747 299.412,471.643 299.841,471.643 C 300.357,471.643 300.812,471.775 301.206,472.04 Z M 309.84,473.667 L 309.836,473.663 L 309.841,473.663 C 309.84,473.664 309.84,473.666 309.84,473.667 Z M 309.831,475.769 L 309.825,475.769 L 309.83,475.763 C 309.83,475.765 309.83,475.767 309.831,475.769 Z M 314.555,475.769 L 314.573,475.794 C 314.529,476.063 314.464,476.308 314.379,476.532 C 314.2,476.997 313.935,477.352 313.584,477.596 C 313.233,477.839 312.793,477.961 312.262,477.961 C 311.747,477.961 311.299,477.843 310.919,477.606 C 310.54,477.37 310.249,477.012 310.049,476.532 C 309.954,476.305 309.881,476.051 309.831,475.769 L 314.555,475.769 Z M 283.702,478.822 L 283.702,478.879 C 283.691,478.86 283.68,478.842 283.67,478.824 L 283.672,478.823 L 283.702,478.822 Z M 283.703,478.858 L 283.702,478.88 L 283.702,478.879 L 283.703,478.858 Z" fill="#000000" stroke-width="0.575" stroke-linecap="round" stroke="none" stroke-linejoin="miter" marker-start="none" marker-end="none"/>
 </g>
</svg>
